<svg width="12" height="10" viewBox="0 0 12 10" fill="none" xmlns="http://www.w3.org/2000/svg">
<path d="M8.40003 4.80002V3.60001H9.60003V4.80002H8.40003ZM8.40003 6.00002H7.20003V4.80002H8.40003V6.00002ZM8.40003 7.20003V6.00002H9.60003V7.20003H8.40003ZM5.50502 2.40001L4.30502 1.2H1.2V8.40003H7.20003V7.20003H8.40003V8.40003H10.8V2.40001H8.40003V3.60001H7.20003V2.40001H5.50502ZM1.2 9.60003C0.870003 9.60003 0.587502 9.48253 0.352501 9.24753C0.1175 9.01253 0 8.73003 0 8.40003V1.2C0 0.870003 0.1175 0.587502 0.352501 0.352501C0.587502 0.1175 0.870003 0 1.2 0H4.80002L6.00002 1.2H10.8C11.13 1.2 11.4125 1.3175 11.6475 1.55251C11.8825 1.78751 12 2.07001 12 2.40001V8.40003C12 8.73003 11.8825 9.01253 11.6475 9.24753C11.4125 9.48253 11.13 9.60003 10.8 9.60003H1.2ZM1.2 8.40003V2.40001V1.2V8.40003Z" fill="#2D2F2F"/>
</svg>
