<svg width="12" height="6" viewBox="0 0 12 6" fill="none" xmlns="http://www.w3.org/2000/svg">
<path d="M5.40002 6.00002H3.00001C2.17001 6.00002 1.46251 5.70752 0.877503 5.12252C0.292501 4.53752 0 3.83001 0 3.00001C0 2.17001 0.292501 1.46251 0.877503 0.877503C1.46251 0.292501 2.17001 0 3.00001 0H5.40002V1.2H3.00001C2.50001 1.2 2.07501 1.375 1.72501 1.72501C1.375 2.07501 1.2 2.50001 1.2 3.00001C1.2 3.50001 1.375 3.92501 1.72501 4.27501C2.07501 4.62502 2.50001 4.80002 3.00001 4.80002H5.40002V6.00002ZM3.60001 3.60001V2.40001H8.40003V3.60001H3.60001ZM6.60002 6.00002V4.80002H9.00003C9.50003 4.80002 9.92503 4.62502 10.275 4.27501C10.625 3.92501 10.8 3.50001 10.8 3.00001C10.8 2.50001 10.625 2.07501 10.275 1.72501C9.92503 1.375 9.50003 1.2 9.00003 1.2H6.60002V0H9.00003C9.83003 0 10.5375 0.292501 11.1225 0.877503C11.7075 1.46251 12 2.17001 12 3.00001C12 3.83001 11.7075 4.53752 11.1225 5.12252C10.5375 5.70752 9.83003 6.00002 9.00003 6.00002H6.60002Z" fill="#2D2F2F"/>
</svg>
