<svg width="10" height="10" viewBox="0 0 10 10" fill="none" xmlns="http://www.w3.org/2000/svg">
<path d="M4.99998 4.99998C4.31248 4.99998 3.72394 4.75519 3.23436 4.26561C2.74478 3.77603 2.49999 3.18749 2.49999 2.49999C2.49999 1.81249 2.74478 1.22395 3.23436 0.734372C3.72394 0.244791 4.31248 0 4.99998 0C5.68748 0 6.27601 0.244791 6.7656 0.734372C7.25518 1.22395 7.49997 1.81249 7.49997 2.49999C7.49997 3.18749 7.25518 3.77603 6.7656 4.26561C6.27601 4.75519 5.68748 4.99998 4.99998 4.99998ZM0 9.99996V8.24996C0 7.8958 0.0911454 7.57028 0.273436 7.27341C0.455727 6.97653 0.697914 6.74997 0.999996 6.59372C1.64583 6.27081 2.30207 6.02862 2.96874 5.86716C3.6354 5.7057 4.31248 5.62498 4.99998 5.62498C5.68748 5.62498 6.36456 5.7057 7.03122 5.86716C7.69788 6.02862 8.35413 6.27081 8.99996 6.59372C9.30204 6.74997 9.54423 6.97653 9.72652 7.27341C9.90881 7.57028 9.99996 7.8958 9.99996 8.24996V9.99996H0Z" fill="white"/>
</svg>
